<svg width="265" height="90" viewBox="0 0 265 90" fill="none" xmlns="http://www.w3.org/2000/svg">
<g clip-path="url(#clip0_331_56)">
<path d="M2.2585 44.8088L68.751 87.7809L184.046 87.6017L184.214 66.1325L124.628 2.17585H2.2585V44.8088ZM68.4338 89.9567C68.2262 89.9567 68.0229 89.8963 67.8485 89.7838L0.590634 46.3174C0.280625 46.1175 0.09375 45.7724 0.09375 45.4027V1.08793C0.09375 0.487193 0.578561 0 1.17589 0H125.098C125.397 0 125.684 0.124705 125.889 0.34452L186.091 64.963C186.28 65.1668 186.385 65.4362 186.382 65.7152L186.202 88.6966C186.198 89.2933 185.716 89.7747 185.122 89.7754L68.4353 89.9567H68.4338Z" fill="#B3B3FF"/>
<path d="M70.489 79.6898H76.2049V78.0551H70.489V79.6898ZM70.489 75.5799H78.668V82.1643H68.0264V71.4707H78.668V73.9305H70.489V75.5799Z" fill="#B3B3FF"/>
<path d="M90.4185 71.4707H92.8817V82.1643H82.2402V79.6898H90.4185V78.0551H82.2402V71.4707H84.7027V75.5799H90.4185V71.4707Z" fill="#B3B3FF"/>
<path d="M100.133 79.6891H104.952V73.9297H101.486L100.133 75.8237V79.6891ZM107.415 79.6427H108.632V84.5769H106.184V82.1636H98.9172V84.5769H96.4541V79.6427H97.6857V74.785L100.073 71.47H107.415V79.6427Z" fill="#B3B3FF"/>
<path d="M120.382 71.4707H122.846V82.1643H112.204V79.6898H120.382V78.0551H112.204V71.4707H114.667V75.5799H120.382V71.4707Z" fill="#B3B3FF"/>
<path d="M137.06 79.6891H138.291V84.6233H135.829V82.1636H126.418V71.47H128.882V79.6891H130.508V71.47H132.971V79.6891H134.597V71.47H137.06V79.6891Z" fill="#B3B3FF"/>
<path d="M151.745 73.9452H143.567V75.5792H151.745V78.0551H143.567V79.6898H151.745V82.1636H141.104V71.47H151.745V73.9452Z" fill="#B3B3FF"/>
<path d="M165.96 71.4707V73.9305H157.781V82.1643H155.317V71.4707H165.96Z" fill="#B3B3FF"/>
<path d="M171.995 79.6898H177.711V73.9305H171.995V79.6898ZM169.532 71.4707H180.174V82.1643H169.532V71.4707Z" fill="#B3B3FF"/>
<path d="M46.4897 8.37524V29.0366H37.1871L46.4897 41.9321H37.2349L27.9327 29.0366H20.8246V41.9321H13.0962V8.37524H20.8246V21.2707H38.7618V8.37524H46.4897Z" fill="#B3B3FF"/>
<path d="M58.9868 34.1659H76.9237V16.0929H58.9868V34.1659ZM51.2588 8.375H84.6523V41.9319H51.2588V8.375Z" fill="#B3B3FF"/>
<path d="M100.967 34.1669H116.089V16.0938H105.213L100.967 22.0381V34.1669ZM123.818 34.0228H127.634V49.507H119.954V41.9328H97.1505V49.507H89.4219V34.0228H93.2865V18.7782L100.776 8.37598H123.818V34.0228Z" fill="#B3B3FF"/>
</g>
<path d="M206.281 79.7132V84.7674L202.772 86.845H194.906V84.1473H203.346V80.3333H198.415L194.906 78.2558V73.4186L198.415 71.3411H205.978V74.0388H197.841V77.6357H202.772L206.281 79.7132Z" fill="#B3B3FF"/>
<path d="M209.915 74.0388V71.3411H212.698V68.7364L215.632 67V71.3411H219.263V74.0388H215.632V84.1473H219.263V86.845H216.207L212.698 84.7674V74.0388H209.915Z" fill="#B3B3FF"/>
<path d="M236.36 84.9225L232.851 87H227.012L223.503 84.9225V73.2636L227.012 71.186H232.851L236.36 73.2636V84.9225ZM226.438 73.8837V84.3023H233.426V73.8837H226.438Z" fill="#B3B3FF"/>
<path d="M249.639 74.0388H244.133V86.845H241.199V71.3411H243.407L244.133 72.6124L246.281 71.3411H249.639V74.0388Z" fill="#B3B3FF"/>
<path d="M264.906 84.1473V86.845H256.466L252.957 84.7674V73.2636L256.466 71.186H261.397L264.906 73.2636V80.1473H255.891V84.1473H264.906ZM255.891 73.8837V77.4496H261.972V73.8837H255.891Z" fill="#B3B3FF"/>
<defs>
<clipPath id="clip0_331_56">
<rect width="186.728" height="89.9567" fill="white" transform="translate(0.09375)"/>
</clipPath>
</defs>
</svg>
